# xmcd CD database file
#
# Track frame offsets:
#	150
#	21973
#	41304
#	58102
#	71879
#	82383
#	104808
#	130048
#	150234
#	170951
#	195001
#	210661
#	225086
#	253330
#	275991
#
# Disc length: 3947 seconds
#
# Revision: 0
# Processed by: cddbd v1.5.2PL0 Copyright (c) Steve Scherf et al.
# Submitted via: CDex 1.51
#
DISCID=d90f690f
DTITLE=Essentials - The Sound of New Age
DYEAR=2003
DGENRE=New Age
TTITLE0=Forbidden Colours
TTITLE1=Oxigene Part 4
TTITLE2=Moon Dance
TTITLE3=Icarus
TTITLE4=The John Dumbar Theme
TTITLE5=The Gathering
TTITLE6=Deep Forest
TTITLE7=Desert Elysium
TTITLE8=Energy Flow
TTITLE9=Stella
TTITLE10=Children´s Games
TTITLE11=Lament
TTITLE12=Oxygene 9
TTITLE13=Tangos de Tesuque
TTITLE14=Awa Awa
EXTD=YEAR: 2003
EXTT0=
EXTT1=
EXTT2=
EXTT3=
EXTT4=
EXTT5=
EXTT6=
EXTT7=
EXTT8=
EXTT9=
EXTT10=
EXTT11=
EXTT12=
EXTT13=
EXTT14=
PLAYORDER=
